<svg xmlns="http://www.w3.org/2000/svg" viewBox="0 0 128 128" role="img" aria-label="HatsOff">
  <defs>
    <linearGradient id="brim" x1="0" y1="0" x2="1" y2="1">
      <stop offset="0%" stop-color="#5BA3FF"/>
      <stop offset="100%" stop-color="#2777FF"/>
    </linearGradient>
    <radialGradient id="glow" cx="50%" cy="40%" r="55%">
      <stop offset="0%" stop-color="#1a3a5c"/>
      <stop offset="100%" stop-color="#0b1220"/>
    </radialGradient>
  </defs>
  <circle cx="64" cy="64" r="62" fill="url(#glow)"/>
  <circle cx="64" cy="64" r="62" fill="none" stroke="#274a72" stroke-width="2"/>
  <!-- tipped fedora -->
  <ellipse cx="64" cy="78" rx="42" ry="9" fill="#0a0f18"/>
  <ellipse cx="64" cy="76" rx="40" ry="7" fill="#121a28"/>
  <path d="M28 70c8-22 22-34 36-34s28 12 36 34c-10-6-22-9-36-9s-26 3-36 9z" fill="#e8eef8"/>
  <path d="M34 68c7-16 18-25 30-25s23 9 30 25c-9-5-19-7-30-7s-21 2-30 7z" fill="#c5d2e8"/>
  <rect x="40" y="62" width="48" height="8" rx="3" fill="url(#brim)"/>
  <path d="M52 62h8l-2 8h-8z" fill="#1a5fd4" opacity=".85"/>
  <!-- tip flare -->
  <path d="M86 58c6 2 12 6 16 12-5-1-10-2-16-2v-10z" fill="#e8eef8"/>
</svg>
